<?xml version="1.0" encoding="UTF-8" standalone="no"?>
<!-- Created with Inkscape (http://www.inkscape.org/) -->

<svg
   xmlns:dc="http://purl.org/dc/elements/1.1/"
   xmlns:cc="http://creativecommons.org/ns#"
   xmlns:rdf="http://www.w3.org/1999/02/22-rdf-syntax-ns#"
   xmlns:svg="http://www.w3.org/2000/svg"
   xmlns="http://www.w3.org/2000/svg"
   xmlns:xlink="http://www.w3.org/1999/xlink"
   xmlns:sodipodi="http://sodipodi.sourceforge.net/DTD/sodipodi-0.dtd"
   xmlns:inkscape="http://www.inkscape.org/namespaces/inkscape"
   width="44.601681mm"
   height="36mm"
   viewBox="0 0 44.601681 35.999999"
   version="1.1"
   id="svg8"
   inkscape:version="0.92.4 (5da689c313, 2019-01-14)"
   sodipodi:docname="logo.svg">
  <defs
     id="defs2">
    <linearGradient
       inkscape:collect="always"
       id="linearGradient823-5">
      <stop
         style="stop-color:#003150;stop-opacity:1"
         offset="0"
         id="stop819" />
      <stop
         style="stop-color:#0093f0;stop-opacity:1"
         offset="1"
         id="stop821" />
    </linearGradient>
    <linearGradient
       inkscape:collect="always"
       xlink:href="#linearGradient823-5"
       id="linearGradient825"
       x1="0.83448827"
       y1="114.4044"
       x2="108.04455"
       y2="114.4044"
       gradientUnits="userSpaceOnUse" />
    <linearGradient
       inkscape:collect="always"
       xlink:href="#linearGradient823-5"
       id="linearGradient841"
       gradientUnits="userSpaceOnUse"
       x1="0.83448827"
       y1="114.4044"
       x2="108.04455"
       y2="114.4044" />
    <linearGradient
       inkscape:collect="always"
       xlink:href="#linearGradient823-5"
       id="linearGradient843"
       gradientUnits="userSpaceOnUse"
       x1="0.83448827"
       y1="114.4044"
       x2="108.04455"
       y2="114.4044" />
    <linearGradient
       inkscape:collect="always"
       xlink:href="#linearGradient823-5"
       id="linearGradient845"
       gradientUnits="userSpaceOnUse"
       x1="0.83448827"
       y1="114.4044"
       x2="108.04455"
       y2="114.4044" />
    <linearGradient
       inkscape:collect="always"
       xlink:href="#linearGradient823-5"
       id="linearGradient847"
       gradientUnits="userSpaceOnUse"
       x1="0.83448827"
       y1="114.4044"
       x2="108.04455"
       y2="114.4044" />
  </defs>
  <sodipodi:namedview
     id="base"
     pagecolor="#ffffff"
     bordercolor="#666666"
     borderopacity="1.0"
     inkscape:pageopacity="0.0"
     inkscape:pageshadow="2"
     inkscape:zoom="1.979899"
     inkscape:cx="77.665366"
     inkscape:cy="74.072684"
     inkscape:document-units="mm"
     inkscape:current-layer="layer1"
     showgrid="false"
     inkscape:window-width="1920"
     inkscape:window-height="1017"
     inkscape:window-x="-8"
     inkscape:window-y="-8"
     inkscape:window-maximized="1"
     fit-margin-top="0"
     fit-margin-left="0"
     fit-margin-right="0"
     fit-margin-bottom="0" />
  <metadata
     id="metadata5">
    <rdf:RDF>
      <cc:Work
         rdf:about="">
        <dc:format>image/svg+xml</dc:format>
        <dc:type
           rdf:resource="http://purl.org/dc/dcmitype/StillImage" />
        <dc:title></dc:title>
      </cc:Work>
    </rdf:RDF>
  </metadata>
  <g
     inkscape:label="Layer 1"
     inkscape:groupmode="layer"
     id="layer1"
     transform="translate(-0.83447825,-119.6462)">
    <g
       aria-label="flau"
       style="font-style:normal;font-weight:normal;font-size:62.16245651px;line-height:1.25;font-family:sans-serif;letter-spacing:0px;word-spacing:0px;fill:url(#linearGradient825);fill-opacity:1;stroke:none;stroke-width:1.55406141"
       id="text817"
       transform="matrix(0.41602177,0,0,0.41602177,0.48731713,90.893992)">
      <path
         d="m 27.659979,104.05196 c 0.09564,-0.14345 0.239086,-0.33472 0.430356,-0.52599 h 0.239086 l 0.908528,-0.2869 0.812894,-0.2869 c 0.908528,-0.28691 1.960508,-0.52599 2.869036,-0.66945 h 0.09564 l 0.191269,-0.19126 0.143452,0.0478 h 0.334721 l 0.09563,0.0956 0.191269,-0.28691 c 0.621625,-0.0478 2.62995,-0.2869 3.299392,-0.33472 h 0.52599 l 0.143452,-0.0478 c 0.286904,-0.0956 0.621625,-0.0956 1.05198,-0.14346 v 0.0478 c 0.52599,-0.14345 1.05198,-0.23909 1.673605,-0.19127 h 0.04782 l 0.286904,-0.0956 1.625787,-0.0956 h 0.04782 1.530153 l 0.191269,-0.0956 -0.09563,-0.23909 -0.09563,-0.0478 c 0,-0.0956 -1.195432,-0.19126 -1.57797,-0.14345 -0.956346,0.0956 -2.295229,0.23909 -2.821219,0.19127 -0.382538,0.0478 -0.765077,0.0478 -1.147615,0.0956 -0.430355,0.0478 -0.860711,0.14345 -1.243249,0.19127 -1.338884,0.0956 -2.534315,0.19126 -3.395026,0.2869 h -0.573808 c -0.956345,0.0956 -2.534315,0.52599 -4.20792,0.95634 l -0.286903,0.0478 h -0.09564 l 0.382538,-0.66944 0.09563,-0.0478 0.143452,-0.0956 v -0.14345 l 0.04782,-0.23909 1.099797,-1.960509 0.669442,-0.765076 0.191269,-0.478173 c 0.382538,-0.430355 0.717259,-0.956345 1.004163,-1.530152 l 0.382538,-0.573808 c 1.960508,-2.10396 3.15594,-4.686093 4.972997,-6.885687 0.908528,-1.386701 1.721421,-1.864874 2.534315,-3.299392 1.386701,-1.769239 3.490661,-4.351372 4.972997,-6.024977 l 0.812893,-1.338883 0.09564,-0.04782 0.286903,0.09563 -0.143451,-0.191269 0.573807,-0.621625 1.147614,-0.286903 0.239087,-0.430356 0.334721,-0.573807 0.382538,-0.430356 0.04782,-0.143451 1.482336,-0.430356 0.334721,-1.05198 -0.286904,-0.573807 -0.382538,-0.430356 h -0.334721 l -0.430356,0.143452 -0.04782,-0.143452 h -0.143452 v 0.143452 l -0.09563,0.143452 -0.239087,0.239086 -0.478172,0.286904 -0.09564,0.09563 -0.04782,-0.09563 -0.239087,0.143452 -0.430355,0.09563 -0.430355,0.334721 -0.04782,0.04782 h -0.09563 l -0.09563,0.143452 -0.191269,0.09564 -0.09563,-0.09564 v 0.09564 l -0.19127,0.334721 v 0.09563 l -0.09563,0.191269 -0.09564,0.09564 v 0.191269 h -0.239086 l -0.191269,0.334721 v 0.143452 l 0.09563,0.04782 -0.143451,0.239086 H 45.63929 l -0.239086,0.286904 -0.191269,0.334721 -0.286904,0.621625 -0.334721,0.573807 -0.669442,0.812894 -0.09563,0.191269 -0.239087,0.04782 -0.09563,0.286904 v 0.04782 l -0.669442,0.669442 -1.195432,1.530152 -0.286903,0.52599 -1.147615,1.338884 -0.09564,0.191269 c -0.52599,0.717259 -1.099797,1.386701 -1.530152,2.10396 l -0.143452,0.239087 -0.478173,0.478172 -0.04782,0.143452 c -0.478173,0.52599 -1.004163,1.05198 -1.338884,1.721422 -0.573807,0.908528 -1.338884,1.817057 -1.769239,2.821219 l -0.334721,0.430356 -0.478173,0.52599 -0.191269,0.191269 -0.382538,0.52599 -0.573807,0.765076 -0.334721,0.191269 -0.04782,0.239087 0.04782,0.09563 c -0.191269,0.286904 -0.382538,0.573808 -0.478173,0.860711 l -2.056143,3.68193 -0.382538,0.52599 -0.430355,0.334721 -0.04782,0.286904 -0.52599,0.52599 -0.860711,1.81705 c -0.04782,0.0478 -0.04782,0.0478 -0.04782,0.0956 l -0.334721,0.0478 H 27.134 l -0.191269,-0.14346 h -0.09564 l -0.33472,0.28691 -0.382539,0.14345 -0.382538,0.0956 -0.52599,0.14346 -1.147614,0.19126 -0.71726,0.14346 -1.912691,0.43035 -0.430355,0.19127 c -0.478173,0 -0.860711,0 -1.769239,0.19127 -0.09564,0.0478 -0.191269,0.0478 -0.286904,0.0478 l -0.04782,-0.0478 h -0.286904 v -0.0478 h -0.04782 v 0.0956 l -0.09564,0.0478 -0.143451,0.0478 -0.04782,0.0478 h -0.04782 l -0.334721,0.0956 -0.286903,0.19127 -0.19127,0.0956 -0.04782,0.0956 h 0.04782 l -0.286903,0.19127 h -0.04782 l -0.143451,0.23909 -0.09564,0.19127 v 0.23908 l 0.191269,0.14345 c 0.621625,1.14762 2.582133,0.8129 3.490661,1.53016 l 0.669442,0.71726 0.334721,0.43035 0.143452,0.0956 0.143452,0.23908 0.143451,0.0956 v 0.19127 l 0.239087,0.19127 0.286903,0.43035 c 0.04782,0.0956 0.09564,0.19127 0.19127,0.2869 l -0.382539,0.62163 -0.143451,0.14345 v 0.0956 l -0.19127,0.33472 h -0.09563 l -0.286904,0.5738 -1.912691,3.10813 -0.334721,0.2869 -0.286903,0.43036 -0.52599,1.09979 -1.099798,1.81706 -1.291066,2.10396 -0.812894,1.00416 -0.239086,0.71726 -1.291066,2.10396 -0.143452,0.43036 c -0.09563,0.0956 -0.143452,0.23908 -0.239087,0.38254 l -0.09563,0.19126 -0.239087,0.33473 -0.239086,0.43035 -1.004163,1.76924 -0.430355,0.62162 -0.143452,0.38254 -0.669442,1.24325 -0.286903,0.52599 -0.19127,0.19127 -0.6216241,1.19543 -0.2390864,0.43036 -0.047817,0.19127 -0.1912691,0.2869 v 0.14345 l -0.7650763,1.43452 -0.1434519,0.14345 -0.3825382,0.8129 -0.1434518,0.0956 -0.047817,0.19127 -0.095635,0.19127 v 0.0956 c -0.1912691,0.43036 -0.3825382,0.86071 -0.6216246,1.29107 l -0.4781727,0.86071 -0.095635,0.0956 v 0.14345 l -0.2390863,0.52599 -0.4303555,0.33472 v 0.23908 l -0.1434518,0.95635 c -0.52599,1.29107 -1.0519801,2.62995 -1.8170564,3.92102 -0.1434519,0.33472 -0.334721,0.62162 -0.4303555,0.95634 h -0.047817 l -0.095635,0.28691 v 0.0956 c -0.1912691,0.57381 -0.3825382,1.0998 -0.4781728,1.6736 l -0.1912691,0.57381 -0.2869036,0.52599 -0.3347209,0.52599 -0.1434519,0.33472 v 0.38254 l 0.047817,0.38254 -0.2390864,0.47817 -0.047817,0.0478 -0.1434519,0.0478 -0.047817,0.19127 -0.095635,0.0478 -0.047817,0.0956 -0.0956345,0.33472 -0.0478173,-0.0478 -0.0478173,0.0478 0.0956345,0.0956 v 0.14345 l -0.0478173,0.19127 v 0.14346 l -0.0478173,0.43035 0.0956345,0.43036 v 0.2869 l 0.0956345,0.0478 v -0.0478 l 0.047817,0.43036 c -0.047817,0.23908 -0.1434518,0.47817 -0.23908635,0.71726 l 0.19126905,0.5738 0.3825382,0.43036 h 0.2390864 v 0.0478 l 0.047817,-0.0478 0.095635,0.0478 0.3825382,-0.14346 0.047817,0.14346 0.1434518,0.0478 v -0.14345 l 0.095635,-0.19127 -0.1912691,-0.0956 1.3867009,-0.86071 1.4345183,-1.00417 0.4303554,-0.5738 1.1954319,-1.43452 0.4781727,-0.71726 h 0.047817 l 0.2390864,-0.28691 v -0.0956 l 0.047817,-0.0478 0.2390864,0.14345 -0.095635,-0.19126 v -0.0956 c 0.095635,-0.0956 0.1912691,-0.19127 0.2390863,-0.2869 l 1.5779701,-1.81706 0.1434518,-0.0478 v -0.0956 l 0.047817,-0.0478 1.099797,-1.33888 0.382538,-0.28691 0.239087,-0.2869 0.669442,-0.66944 0.286903,-0.33472 0.239087,-0.28691 0.334721,-0.66944 0.478172,-0.52599 0.09563,-0.19127 c 1.530153,-1.81705 3.012488,-3.68193 4.399189,-5.59462 l 0.860711,-0.86071 0.573807,-0.86071 0.143452,-0.2869 0.382538,-0.57381 0.09563,-0.19127 0.334721,-0.33472 0.334721,-0.66944 0.382538,-0.57381 0.143452,-0.19127 0.382538,-0.38254 0.286904,-0.33472 0.143451,-0.2869 0.478173,-0.52599 0.143452,-0.19127 0.191269,-0.57381 0.04782,-0.43035 0.239087,-0.43036 0.09563,-0.43035 0.09564,-0.14346 0.04782,-0.2869 0.239087,-0.43035 0.09563,-0.0478 -0.04782,-0.0956 0.286903,-0.5738 0.382539,-0.28691 0.09563,-0.23908 -0.143452,-0.23909 c 0.191269,-0.43036 0.382539,-0.81289 0.52599,-1.24325 l 0.52599,-0.66944 0.143452,-0.14345 0.04782,-0.14346 v -0.19126 l 0.04782,-0.43036 0.04782,-0.38254 0.286904,-0.23908 0.09563,-0.0956 -0.09563,-0.0956 -0.09563,-0.47818 c 0.09563,-0.2869 0.143452,-0.5738 0.191269,-0.81289 l 0.04782,-0.0956 0.286903,-0.8129 0.04782,-0.38254 0.04782,-0.33472 0.143452,-0.5738 0.09563,-0.47818 v -0.33472 l -0.04782,-0.76507 0.143452,-0.71726 -0.04782,-0.57381 -0.239086,-0.81289 0.09563,-0.33473 -0.19127,-0.43035 v -0.0956 c -0.143451,-0.71725 -0.239086,-1.3867 -0.478172,-2.05614 l 0.04782,-0.0478 -0.09564,-0.14345 -0.143451,-0.33472 -0.04782,-0.47817 -0.09563,-0.33472 v -0.38254 l -0.04782,-0.0956 -0.286903,-0.0956 -0.143452,-0.14345 -0.191269,-0.2869 -0.143452,-0.0956 c -0.191269,-0.33472 -0.430355,-0.66944 -0.669442,-1.00416 0,0 0,-0.0478 0.04782,-0.0478 l 0.286903,-0.2869 0.04782,-0.28691 0.04782,-0.0956 c 0.286903,-0.43036 0.52599,-0.86071 0.765076,-1.29107 l 0.286904,-0.0956 0.04782,-0.14345 0.09564,-0.19127 0.09563,-0.38254 z m -4.494824,23.09575 -0.573807,1.24325 -0.04782,0.0956 -0.239087,0.43036 v 0.14345 l -0.09563,0.0478 v 0.0956 l -0.478173,0.86071 c -0.382538,0.57381 -0.717259,1.19543 -1.05198,1.76924 l -0.191269,0.23909 v 0.0956 l -0.04782,0.0478 h -0.04782 l -0.04782,0.19127 -0.143452,0.0956 -0.09563,0.14345 v 0.14346 l -0.956346,1.53015 -0.573807,0.38254 -0.717259,1.43451 -1.338884,1.67361 -0.04782,0.0478 v 0.0478 l -0.286904,0.38254 -0.956345,1.14762 -0.478173,0.38253 -1.004163,1.38671 -0.717259,0.76507 -1.57797,1.76924 -1.769239,2.00833 -0.4303555,0.52599 -0.5738073,0.62162 -1.3867009,1.91269 -0.4303555,0.38254 -0.2390864,0.14345 -2.7255846,2.62995 -0.8607109,0.57381 -0.047817,-0.14345 -0.047817,-0.57381 -0.095635,-0.23909 v -0.0478 c 0.6694418,-2.67777 1.0041627,-6.21625 2.2952291,-8.75056 l 0.2869037,-0.38254 0.4781727,-1.0998 1.8648737,-3.53848 c 0.2869037,-0.52599 0.52599,-1.05198 0.8128937,-1.53015 l 0.4303554,-0.62163 0.2390864,-0.66944 0.8128934,-1.62578 0.669442,-1.24325 0.239086,-0.52599 0.286904,-0.66945 0.382538,-0.38253 0.04782,-0.43036 1.004162,-1.91269 0.191269,-0.33472 v -0.0956 c 0.143452,-0.19126 0.239087,-0.43035 0.334721,-0.62162 l 0.52599,-0.66944 0.52599,-1.29107 1.147615,-1.96051 0.382538,-0.66944 0.191269,-0.52599 c 0,-0.0478 0.04782,-0.0956 0.09563,-0.14345 l 0.239086,-0.33472 0.143452,-0.33472 c 0.430355,-0.8129 0.908528,-1.62579 1.386701,-2.39087 0.669442,-1.09979 1.625787,-1.72142 2.295229,-2.7734 l 1.291066,-2.05614 0.143452,-0.14345 0.334721,-0.57381 0.239087,-0.38254 0.430355,-0.43035 v -0.33472 l 0.191269,-0.23909 0.04782,-0.0478 0.04782,-0.14345 0.430355,-0.71726 h 0.04782 c 0.334721,0.43036 0.71726,0.76508 1.099798,1.24325 l 0.191269,0.38254 0.143452,0.14345 0.191269,0.2869 0.382538,0.90853 0.04782,0.19127 0.191269,0.52599 0.04782,0.66944 0.04782,0.43036 0.04782,0.0478 c 0.04782,1.09979 0.04782,2.19959 0,3.25157 l -0.239086,0.86071 -0.09564,0.47817 -0.191269,0.62163 -0.04782,0.71726 -0.09563,0.52599 -0.191269,0.81289 -0.143452,0.57381 -0.430355,1.24325 v 0.0956 l -0.286904,0.71726 -0.04782,0.0478 -0.04782,0.14345 -0.286904,0.47817 -0.334721,0.47818 z m 2.869037,-23.2392 c 0.09563,0 0.191269,0 0.334721,-0.0956 l 0.239086,0.0478 0.286904,-0.19126 -0.09563,0.19126 -0.239086,0.43036 -1.386701,2.05614 -0.573807,0.71726 -0.19127,0.52599 -0.908528,1.43452 v -0.0478 l -0.191269,-0.19127 -0.143452,-0.47817 -0.09563,-0.14345 -0.286904,-0.2869 -0.286904,-0.14346 -0.09563,-0.14345 c -0.191269,-0.23908 -0.430356,-0.47817 -0.812894,-0.76507 v -0.0956 l -0.143452,0.0478 v -0.0478 c -0.765076,-0.47817 0.430356,-0.66944 -0.573807,-1.05198 l -0.143452,-0.2869 0.478173,-0.0956 0.334721,-0.0956 0.478173,-0.19127 0.621624,-0.14345 0.286904,-0.14345 0.430355,-0.0956 0.52599,-0.2869 0.956346,-0.14345 z"
         style="font-style:normal;font-variant:normal;font-weight:normal;font-stretch:normal;font-family:'Antro Vectra';-inkscape-font-specification:'Antro Vectra';fill:url(#linearGradient841);fill-opacity:1;stroke-width:1.55406141"
         id="path832"
         inkscape:connector-curvature="0" />
      <path
         d="m 44.521919,112.56344 -0.812893,0.23908 -0.908529,0.47818 -0.430355,0.23908 -0.669442,0.28691 -0.286903,0.19127 -0.478173,0.14345 -0.143452,0.0956 -0.908528,0.33472 -0.52599,0.23909 -0.143452,0.0956 -0.430356,0.0956 -0.191269,0.14345 -0.669441,0.19127 h -0.382539 l -0.430355,-0.23909 -0.143452,-0.0478 -0.09564,-0.14346 -0.191269,-0.19126 -0.09563,-0.28691 0.04782,-0.66944 0.09564,-0.19127 0.191269,-0.19127 0.334721,-0.66944 0.09563,-0.23909 0.04782,-0.52599 1.195431,-2.24741 0.239087,-0.23908 0.334721,-0.62163 0.239086,-0.52599 c 0,-0.0478 0.04782,-0.0956 0.09564,-0.14345 l 0.52599,-0.90853 c 0.04782,0 0.04782,-0.0478 0.04782,-0.0478 l 0.573807,-0.81289 0.382538,-0.57381 v -0.0956 l 0.430356,-0.62163 0.239086,-0.14345 0.430356,-0.76507 0.478172,-0.43036 0.382539,-0.38254 0.09563,-0.43035 0.239087,-0.0956 0.382538,-0.47817 0.143452,-0.19127 0.04782,-0.47817 0.09563,-0.33472 0.478173,-0.66945 0.908528,-1.338879 h 0.04782 l 0.191269,-0.143452 0.191269,-0.191269 0.04782,-0.334721 0.334721,-0.143452 v -0.191269 l 0.143452,-0.04782 0.430355,-0.669442 0.04782,-0.286904 1.3867,-1.769239 0.525991,-0.621625 0.478172,-0.478172 0.334721,-0.573808 0.334721,-0.478172 1.960508,-2.869037 0.382539,-0.334721 0.956345,-1.338884 0.765076,-1.05198 0.621625,-0.621624 1.004163,-1.434518 0.334721,-0.286904 0.621624,-0.860711 v -0.04782 l 0.621625,-0.669442 0.286903,-0.478173 0.478173,-0.382538 1.099797,-1.625787 0.765077,-0.765077 0.09563,-0.143452 0.669442,-0.573807 0.334721,-0.52599 0.239087,-0.143452 1.004162,-0.334721 0.191269,-0.286903 0.717259,-0.478173 0.621625,-0.52599 0.382538,-0.860711 -0.239086,-0.478173 -0.191269,-0.286903 -0.286904,-0.04782 -0.239086,0.04782 v -0.04782 H 62.93157 v 0.143452 l -0.04782,0.143452 h -0.09564 c -0.09563,-0.04782 -0.09563,0.04782 -0.191269,0.09564 l -0.04782,0.04782 -0.143452,-0.04782 -0.239086,0.143451 -0.04782,-0.09563 h -0.143452 l 0.04782,0.09563 -0.09563,0.19127 -0.239086,0.143451 -0.334721,0.239087 -0.191269,0.191269 -0.191269,0.04782 -0.09564,-0.04782 h -0.04782 v 0.04782 l -0.09564,0.143452 -0.09563,0.09563 -0.334721,0.19127 -0.430356,0.621624 -0.908528,0.573807 -0.334721,0.430356 -0.04782,0.191269 -0.239086,0.334721 -0.334721,0.334721 -0.191269,0.334721 v -0.191269 l -0.239087,0.04782 -0.143452,0.239086 v 0.04782 l 0.04782,0.09563 0.191269,-0.143452 -0.09564,0.143452 -0.09563,0.239087 -0.04782,0.09563 -0.191269,0.143452 v 0.04782 l -0.09563,0.143452 -0.573808,0.908528 -0.191269,0.191269 -0.382538,0.573808 -0.334721,0.286903 -0.669442,1.05198 -0.239086,0.191269 -1.625787,2.343047 -0.239087,0.239086 -0.286903,0.382538 -0.09564,0.04782 -0.430355,0.621624 -0.09564,0.239087 -0.143452,0.143451 -0.717259,1.004163 v 0.143452 L 50.929409,90.0415 v 0.191269 l -0.191269,0.191269 -0.191269,0.239087 v 0.143451 c -0.04782,0 -0.04782,0.04782 -0.09563,0.09564 l -0.191269,0.143452 -0.191269,0.286903 -0.191269,0.19127 -0.286904,0.33472 -0.239086,0.430356 -0.191269,0.286904 c -0.191269,0.239086 -0.382538,0.478172 -0.52599,0.717259 h -0.143452 l -0.143452,0.09563 -0.143452,0.430356 -0.143451,0.191269 v 0.04782 l -0.812894,1.147615 -0.239086,0.286903 -0.382539,0.334721 -0.286903,0.382538 -0.04782,0.286904 v 0.04782 l -0.286904,0.286904 -0.09564,0.191269 -0.143452,0.191269 -0.04782,0.04782 -0.191269,0.286904 -0.04782,0.09564 -0.143452,0.191269 -0.09563,0.04782 -0.143451,0.286904 -0.239087,0.143452 -0.765076,1.05198 -0.09564,0.191269 -0.191269,0.239086 -0.478172,0.669448 v 0.14345 l -0.286904,0.33472 -0.239087,0.43036 -1.91269,2.62995 -0.09564,0.23908 -0.812894,1.14762 -0.239086,0.47817 -0.430356,0.62162 -0.143451,0.23909 -0.717259,1.05198 -0.143452,0.0478 -0.143452,0.2869 -0.04782,0.14345 -0.191269,0.14346 h -0.09564 l -0.334721,0.76507 -0.239086,0.43036 -0.334721,0.43035 -0.239087,0.14345 -0.286903,0.47818 -0.286904,1.09979 -0.430355,0.71726 -0.143452,0.38254 -0.04782,0.19127 -0.09563,0.14345 h -0.04782 v 0.0478 h 0.143452 c -0.239087,0.52599 -0.286904,1.05198 -0.239087,1.57797 0.04782,0.38254 0.286904,0.81289 0.478173,1.0998 l 0.239086,0.43035 0.191269,0.0478 0.717259,0.23909 0.19127,0.0956 0.143451,0.0956 h 0.143452 l 0.143452,0.0478 0.191269,-0.0478 h 0.04782 l 0.19127,-0.0956 0.143451,-0.14345 h 0.239087 l 0.191269,-0.0956 h 0.143452 l 1.099797,-0.52599 0.09563,-0.0956 h 0.239087 l 0.621624,-0.33472 0.04782,0.0478 0.908528,-0.19127 0.860711,-0.19127 0.286903,-0.14345 0.382539,0.0478 0.143452,-0.0956 0.04782,-0.2869 0.382538,-0.38254 0.191269,-0.0956 0.286904,-0.38254 0.956345,-0.66944 0.143452,-0.0956 0.334721,-0.23909 0.621625,-0.23908 0.239086,-0.19127 0.669442,-0.43036 0.430355,-0.23909 0.143452,-0.0956 0.09564,-0.0956 0.621624,-0.38254 0.286904,-0.14345 0.334721,-0.23909 1.147614,-0.57381 c 0.334721,-0.19127 0.621625,-0.71726 0.956346,-0.90853 0.191269,-0.14345 0.382538,-0.2869 0.621624,-0.38253 l 0.334721,-0.19127 0.478173,-0.19127 0.334721,-0.33472 c 0.956345,-0.57381 1.960508,-1.0998 2.869036,-1.72143 h 0.09564 l 0.09563,-0.0956 0.143452,-0.0956 0.191269,-0.0478 0.191269,-0.14345 0.04782,-0.19127 -0.143452,-0.19127 -0.143452,-0.0478 h -0.143452 l -0.143452,0.19127 c -0.04782,0 -0.09563,0 -0.143451,0.0478 -0.334721,0.23908 -0.669442,0.47817 -1.004163,0.66944 l -0.430356,0.23909 -0.52599,0.19126 -0.334721,0.23909 -0.191269,0.19127 -0.334721,0.19127 -0.239086,0.23909 -0.09563,-0.0478 -0.286904,0.19127 -0.191269,0.19127 -0.143452,0.0478 -0.191269,0.14346 h -0.239086 l -1.004163,0.5738 -0.143452,0.14345 -0.239086,0.0478 -0.621625,0.43036 -0.09564,0.0956 -0.382538,0.23909 -0.239086,0.23908 -2.486498,1.38671 -0.04782,0.0478 c -0.621624,0.33472 -1.243249,0.66944 -1.864873,0.95635 z"
         style="font-style:normal;font-variant:normal;font-weight:normal;font-stretch:normal;font-family:'Antro Vectra';-inkscape-font-specification:'Antro Vectra';fill:url(#linearGradient843);fill-opacity:1;stroke-width:1.55406141"
         id="path834"
         inkscape:connector-curvature="0" />
      <path
         d="m 68.794789,109.16841 -0.382539,0.47817 -0.143451,0.23909 -0.334721,0.43036 -0.04782,0.19127 -0.143451,0.33472 c -0.09563,0.2869 -0.09563,0.43035 -0.04782,0.62162 l 0.04782,0.19127 -0.04782,0.23909 0.143452,0.19127 0.191269,0.0956 0.239087,0.0956 h 0.33472 l 0.09563,0.0478 h 0.52599 l 0.334721,-0.0956 0.04782,-0.0478 0.09564,0.0478 0.09563,-0.0956 0.143452,-0.0478 0.04782,0.0956 0.04782,-0.0478 0.239086,-0.19127 0.717259,-0.23908 0.812894,-0.28691 0.04782,-0.0956 0.382538,-0.14345 0.04782,0.0478 v -0.0956 l 1.243249,-0.43036 0.09563,-0.0956 0.143452,-0.0478 0.382538,-0.23908 0.334721,-0.14346 h 0.04782 l 0.382539,-0.14345 0.239086,-0.14345 0.478173,-0.19127 0.191269,-0.0956 1.05198,-0.38254 0.908528,-0.2869 0.812894,-0.33473 1.099797,-0.52599 0.382538,-0.14345 0.765077,-0.19127 h 0.191269 l 0.573807,-0.2869 0.812894,-0.19127 h 0.382538 l 0.191269,-0.14345 -0.04782,-0.33472 h -0.09564 c -0.04782,-0.0478 -0.09563,-0.0478 -0.143452,-0.0478 l -1.195432,0.38254 h -0.239086 l -2.295229,0.66944 -0.143452,0.14345 -0.430355,0.14345 -0.143452,-0.0956 v 0.0956 l -1.57797,0.43036 -0.191269,0.14345 -0.191269,0.0478 -0.382539,0.19127 -0.621624,0.19127 v -0.0478 l -0.52599,0.14345 -0.143452,0.0956 -1.673605,0.47817 h -0.286903 l -0.334721,0.14345 -0.382538,0.0956 c -0.430356,0.0956 -0.717259,0.19126 -1.05198,0.23908 l -0.09564,-0.0478 -0.239086,0.0478 h -0.334721 l -0.09564,0.0478 h -0.334721 l -0.239086,0.0478 c -0.04782,0 -0.09564,-0.0478 -0.143452,-0.0478 -0.191269,-0.0478 -0.143452,0.0478 -0.143452,-0.0956 -0.04782,-0.0956 0,-0.2869 0.09564,-0.47817 l 0.04782,-0.0478 0.143452,-0.38253 c 0.04782,-0.0956 0.09563,-0.23909 0.191269,-0.33472 l 0.382538,-0.52599 0.09564,-0.19127 0.09563,-0.14346 0.286904,-0.38253 0.09564,-0.0478 v -0.0478 l 0.09563,-0.0956 0.573807,-0.66944 0.143452,-0.0478 0.286904,-0.23909 0.334721,-0.52599 c 0.09563,-0.0956 0.191269,-0.19127 0.239086,-0.2869 l 0.286904,-0.23909 0.09563,-0.19127 0.09564,-0.14345 0.09563,-0.0956 0.04782,0.0478 0.04782,-0.0956 h -0.09564 l 0.04782,-0.14345 v -0.19127 l -0.09564,-0.0478 v -0.0478 c -0.09563,-0.19127 -0.191269,-0.2869 -0.382538,-0.33472 l -0.191269,-0.14345 -0.334721,-0.19127 -0.430356,-0.0956 h -0.573807 l -1.482335,0.33472 -0.621625,0.38254 -0.573807,0.38253 -0.239087,0.19127 -0.382538,0.23909 -0.239086,0.19127 -0.860711,0.43035 -0.430356,0.33473 -0.86071,0.43035 -0.286904,0.0956 -1.338884,0.62162 -0.334721,0.23909 -1.291066,0.66944 -0.334721,0.19127 -0.382538,0.19127 -0.717259,0.33472 -0.191269,0.0478 -0.143452,0.14346 -0.09563,0.0478 v 0.0478 l -0.334721,0.14345 -0.239086,0.19127 c -0.52599,0.28691 -1.099797,0.52599 -1.625787,0.76508 h -0.382539 l -0.239086,0.19127 -0.334721,0.19127 -0.239086,0.14345 c -0.621625,0.2869 -1.243249,0.57381 -1.864874,0.81289 l -0.239086,0.0478 h -0.04782 l -0.669441,0.23909 -0.430356,0.0956 -1.004163,0.38254 -0.143452,-0.0956 -0.143451,-0.23908 -0.09564,-0.14345 v -0.28691 l 0.04782,-0.0956 v -0.0956 l 0.191269,-0.2869 0.239087,-0.2869 0.143452,-0.19127 0.191269,-0.14346 0.09563,-0.0956 v -0.0956 l 0.04782,-0.0956 -0.04782,-0.2869 v -0.0956 l 0.478173,-0.5738 0.239086,-0.28691 0.239087,-0.23908 0.09563,-0.19127 0.191269,-0.23909 0.09564,-0.23909 h 0.09564 l 0.143451,-0.19127 0.09564,-0.19126 0.143452,-0.0956 0.09563,-0.0956 0.143452,-0.0956 0.573807,-0.71726 0.09564,-0.14345 0.09563,-0.0956 0.430355,-0.47818 0.143452,-0.14345 0.430355,-0.23908 0.334721,-0.19127 0.334721,-0.33472 0.430356,-0.47818 0.191269,-0.19127 2.151777,-1.57797 0.09564,-0.0478 0.04782,-0.0478 0.430355,-0.33472 c 0,0.0478 0,0.0478 0.04782,0 0.286903,-0.19127 0.52599,-0.38254 0.812893,-0.52599 l 0.765077,-0.33472 1.099797,-0.47818 0.765076,-0.33472 0.669442,-0.2869 h 0.334721 l 0.334721,-0.0478 h 0.09564 v 0.0478 h 0.191269 v -0.0478 l 0.765076,0.0956 h 0.860711 l 0.334721,-0.0478 0.52599,-0.14345 c 0.04782,0.0478 0.191269,0.0956 0.334721,0 0.334721,-0.33472 0.478173,-0.43036 0.52599,-0.573809 l 0.143452,-0.09564 v -0.430355 l -0.09563,-0.239087 -0.191269,-0.04782 -0.04782,-0.09564 -0.143452,-0.09563 h -0.191269 v -0.04782 h -0.09564 l -0.191269,-0.04782 h -0.286903 l -0.286904,0.04782 -0.478173,-0.143452 -0.191269,0.04782 -0.334721,0.09564 -0.286904,0.09563 -0.33472,0.04782 -0.239087,0.143452 h -0.143452 l -0.430355,0.143452 -0.09564,0.04782 -0.09563,-0.04782 -0.382538,0.09564 -0.191269,0.09563 -0.286904,0.239086 -1.530153,0.765083 -0.382538,0.14345 v 0.0956 l -0.191269,0.14346 -0.239087,0.0478 -0.191269,0.0478 -0.334721,0.0956 -0.143451,0.0956 -0.334721,-0.0478 -0.09564,0.0478 -0.191269,0.33472 -0.239086,0.23909 -0.573808,0.62162 -0.04782,0.0478 -1.243249,0.90853 -0.382538,0.23908 -0.812894,0.66945 -0.143452,0.14345 -0.621624,0.52599 h -0.04782 v 0.0478 l -2.151777,1.9127 -0.573807,0.47817 -0.382538,0.2869 -0.191269,0.23909 -0.382539,0.62162 -0.09563,0.0956 -0.52599,0.38254 -0.334721,0.47817 -0.09564,0.23908 v -0.0478 l -0.09563,0.0478 -0.09564,0.19127 -0.191269,0.28691 -0.04782,0.19127 -0.143452,0.0478 -0.191269,0.57381 c -0.334721,0.76508 -0.52599,1.48234 -0.334721,2.10396 0.191269,0.52599 0.812894,0.66944 1.57797,0.57381 h 0.04782 l 0.286904,0.0478 h 0.143452 l 0.143452,-0.0478 0.09563,-0.0478 0.717259,-0.2869 0.191269,-0.0478 0.956346,-0.33472 0.191269,-0.14345 c 0.143452,-0.0478 0.334721,-0.0956 0.478173,-0.19127 H 56.1232 l 0.573807,-0.23909 h 0.430356 v -0.0478 h 0.09563 l 0.478173,-0.2869 0.09563,-0.0956 1.147615,-0.62163 0.430356,-0.19127 0.430355,-0.14345 0.286904,-0.23909 0.286903,-0.19126 0.860711,-0.52599 0.286904,-0.0956 0.573807,-0.33472 0.239087,-0.0956 0.717259,-0.38254 0.430355,-0.19127 1.099797,-0.62163 1.099798,-0.52599 0.334721,-0.19127 0.334721,-0.14345 0.382538,-0.23908 h 0.04782 l 1.386701,-0.86071 0.239086,-0.0478 0.334721,-0.0956 1.386701,-0.52599 0.573808,-0.14345 h 0.430355 l 0.239086,0.0478 0.04782,0.0478 -0.143452,0.47817 -0.04782,-0.0478 v 0.0956 l -0.19127,0.23908 -0.573807,0.62163 -0.143452,0.0956 -0.04782,0.0956 -0.143452,0.14345 -0.191269,0.38254 -0.860711,1.05198 -0.09563,0.14345 -0.04782,0.0956 z"
         style="font-style:normal;font-variant:normal;font-weight:normal;font-stretch:normal;font-family:'Antro Vectra';-inkscape-font-specification:'Antro Vectra';fill:url(#linearGradient845);fill-opacity:1;stroke-width:1.55406141"
         id="path836"
         inkscape:connector-curvature="0" />
      <path
         d="m 97.71602,111.75054 -0.04782,0.33473 c -0.04782,0.23908 -0.04782,0.52599 0.04782,0.66944 v 0.0478 l 0.04782,0.0478 v 0.0956 l 0.04782,0.14345 0.143452,0.19127 h 0.143451 c 0.04782,0 0.09564,0.0478 0.19127,0.0478 l 0.09563,0.0478 0.09564,-0.0478 c 0.334721,0.0478 0.812893,-0.0478 1.386701,-0.0956 h 0.382546 l 0.71725,-0.14345 0.57381,-0.0956 h 0.0956 c 0.0478,0 0.0956,0 0.14345,-0.0478 h 0.0956 l 0.33472,-0.0478 0.43036,-0.0478 0.62162,-0.19127 0.28691,-0.0478 0.43035,-0.0478 1.62579,-0.52599 0.62163,-0.14345 0.0956,0.0956 0.14345,-0.0956 0.19127,-0.14346 0.86071,-0.0478 0.14345,-0.0478 0.19127,-0.0478 0.19127,-0.14345 -0.0956,-0.14345 -0.23909,-0.0956 -0.2869,0.0478 h -0.0478 c -0.0478,0 -0.0956,0 -0.14345,0.0478 h -0.0478 l -0.47817,0.0478 -0.62163,0.0478 -0.2869,0.0956 h -0.0478 l -0.0478,0.0478 -1.05199,0.14345 -0.23908,-0.0478 -0.66944,0.19127 h -0.28691 l -0.0478,0.0478 c -0.62163,0.0956 -1.14762,0.19127 -1.67361,0.19127 h -0.33472 l -0.2869,-0.0478 h -0.38254 l -0.47817,-0.0478 c -0.430364,-0.0478 -0.717267,-0.19127 -0.956354,-0.43035 -0.239086,-0.19127 -0.143452,-0.66945 0.09564,-1.29107 l 0.143452,-0.14345 0.239086,-0.43036 0.04782,-0.2869 0.191266,-0.43036 0.0478,-0.19127 0.38253,-0.5738 0.0478,-0.19127 0.28691,-0.33472 0.19126,-0.43036 0.19127,-0.47817 0.0956,-0.14345 0.23908,-0.33472 0.14346,-0.23909 0.0956,-0.23909 0.43036,-0.5738 v -0.28691 l 0.23908,-0.38254 0.38254,-0.43035 0.14345,-0.28691 0.0956,-0.0956 v -0.0956 l 0.0956,0.0478 v -0.0956 h -0.0956 l 0.0956,-0.14345 v -0.19127 l -0.23908,-0.14345 -0.28691,-0.0956 -0.0956,0.0478 c -0.0478,-0.0956 -0.14345,-0.23909 -0.28691,-0.28691 l -0.14345,-0.0478 -0.43035,0.19127 -0.0478,0.0478 c -0.2869,0.0956 -0.57381,0.23909 -0.81289,0.38254 l -0.19127,-0.0956 -0.0956,0.0478 -0.0478,0.0956 -0.2869,0.2869 -0.43035,0.23909 -0.191269,0.0956 -1.147615,0.43036 -0.382538,0.23909 -0.239086,0.14345 -0.573808,0.23908 -0.430355,0.23909 -0.334721,0.19127 -0.573807,0.57381 -0.621625,0.33472 -0.430355,0.33472 -1.434519,0.86071 -0.669442,0.19127 -0.143451,0.14345 -0.239087,0.14345 -0.09563,0.14345 -0.191269,0.0478 -0.191269,0.23909 -0.04782,0.0478 -1.05198,0.62163 -0.334721,0.0956 -0.09563,0.14346 c -0.04782,0 -0.09564,0.0478 -0.143452,0.0956 l -1.195432,0.47817 -0.382538,0.38254 -0.286904,0.14345 -0.430355,0.19127 -0.334721,0.14345 -0.286904,0.23909 c -0.669442,0.33472 -1.291066,0.62162 -1.960508,0.90853 l -0.382538,0.19127 -0.382538,0.0956 -0.71726,0.28691 -0.478172,0.0478 -0.286904,0.23909 c -1.195432,0.43035 -2.438681,0.71726 -2.677767,0.33472 -0.04782,-0.0956 -0.04782,-0.23909 -0.04782,-0.38254 l 0.04782,-0.0478 0.04782,-0.2869 0.239086,-0.38254 0.09564,-0.47817 0.04782,-0.33472 0.191269,-0.33472 c 0.09564,-0.14345 0.191269,-0.28691 0.286904,-0.47817 l 0.478173,-0.66945 c 0.191269,-0.33472 0.430355,-0.66944 0.669441,-1.00416 l 0.19127,-0.19127 0.143451,-0.23908 0.09564,-0.19127 1.004163,-1.29107 0.09563,-0.0478 h 0.04782 l 0.04782,-0.14345 0.286903,-0.23909 0.19127,-0.23908 0.04782,-0.0956 0.191269,-0.14345 0.286904,-0.33472 0.286903,-0.2869 0.143452,-0.14345 0.334721,-0.28691 0.382538,-0.86071 0.478173,-0.52599 0.239086,-0.38254 0.143452,-0.5738 -0.09563,-0.8129 -0.04782,-0.0478 c 0,-0.23908 0,-0.47817 -0.143452,-0.66944 -0.04782,0 -0.04782,-0.0478 -0.04782,-0.0478 v -0.0478 l -0.239086,-0.19127 h -0.3347 l -0.430356,0.2869 -0.52599,0.66944 -0.286903,0.23909 -0.143452,0.2869 v 0.19127 l 0.09563,0.28691 -0.09563,0.33472 v 0.52599 l -0.09563,0.47817 -0.04782,0.0956 -0.09563,0.14345 -0.19127,0.33472 -0.669441,0.71726 -0.239087,0.38254 h -0.04782 v 0.0956 l -0.239086,0.33472 -0.09564,0.0956 -0.04782,0.0956 -0.286904,0.23909 -0.191269,0.23908 -0.286904,0.43036 -0.191269,0.47817 -0.239086,0.33472 -0.286904,0.38254 -0.143452,0.38254 -0.573807,1.00416 -0.334721,0.38254 -0.09563,0.19127 -0.239087,0.2869 -0.04782,0.14345 -0.143452,0.38254 -0.191269,0.23909 -0.09563,0.38254 -0.143452,0.86071 v 0.2869 c -0.04782,0.19127 -0.04782,0.38254 -0.04782,0.62163 l 0.143452,0.23908 0.04782,-0.0478 v 0.0478 c 0.09563,0 0.143451,0.0478 0.239086,0.0478 l 0.478173,0.2869 0.286903,0.14345 h 0.286904 v 0.0478 l 1.338884,0.14345 h 0.191269 l -0.04782,0.0478 0.04782,0.0478 0.04782,-0.0478 0.04782,-0.0956 h 0.143452 l 0.286904,-0.0956 h 0.04782 l 0.04782,0.0478 0.143452,-0.0956 v -0.0478 l 0.334721,-0.14345 0.717259,-0.0956 0.382538,-0.19127 0.143452,-0.14345 0.286904,-0.19127 0.334721,-0.0956 0.191269,-0.0478 0.286903,-0.2869 0.19127,-0.0956 0.143451,-0.0478 0.09564,-0.0478 0.04782,-0.0478 0.09564,-0.0478 0.239086,-0.19127 h 0.143452 l 0.143452,-0.14345 0.430355,-0.19127 v -0.0478 l 0.143452,-0.0478 0.191269,-0.23909 0.09564,-0.0478 0.09563,-0.0956 1.864874,-1.05198 0.09564,-0.0956 0.52599,-0.19126 1.386701,-0.76508 0.143451,-0.19127 h 0.09564 l 0.239086,-0.23909 2.821219,-1.62578 0.286904,-0.14346 0.860711,-0.52599 1.195432,-0.62162 0.478173,-0.23909 0.334721,-0.0956 0.143451,-0.0956 1.004163,-0.33472 0.621632,-0.23908 h 0.0956 l 0.19127,-0.14345 0.0956,0.23908 0.0956,0.14345 v 0.38254 l -0.19127,0.28691 -0.0478,0.2869 -0.23908,0.43035 -0.0478,0.14346 -0.239091,0.43035 -0.143452,0.19127 -0.09563,0.23909 c -0.286904,0.5738 -0.621625,1.09979 -0.908529,1.6736 l -0.04782,0.0956 c 0,0.0478 -0.09563,0.14345 -0.09563,0.19127 l -0.143452,0.19126 -0.04782,0.19127 -0.239087,0.43036 -0.04782,0.14345 v 0.0956 c -0.143452,0.19126 -0.143452,0.38253 -0.191269,0.5738 z"
         style="font-style:normal;font-variant:normal;font-weight:normal;font-stretch:normal;font-family:'Antro Vectra';-inkscape-font-specification:'Antro Vectra';fill:url(#linearGradient847);fill-opacity:1;stroke-width:1.55406141"
         id="path838"
         inkscape:connector-curvature="0" />
    </g>
  </g>
</svg>
